# xmcd CD database file
#
# Track frame offsets:
#	187
#	24512
#	46337
#
# Disc length: 944 seconds
#
# Revision: 0
# Processed by: cddbd v1.5.1PL0 Copyright (c) Steve Scherf et al.
# Submitted via: CDex 1.51
#
DISCID=1b03ae03
DTITLE=Jungle Smile - 小さな革命
DYEAR=1998
DGENRE=JPop
TTITLE0=小さな革命
TTITLE1=水たまり
TTITLE2=小さな革命 (お稽古用)
EXTD=YEAR: 1998
EXTT0=
EXTT1=
EXTT2=
PLAYORDER=
